# xmcd CD database file
#
# Track frame offsets:
#	150
#	10682
#	23060
#	37992
#	48770
#	67540
#	94267
#	111262
#	122327
#	136177
#	154342
#	164977
#	184427
#	198847
#
# Disc length: 2882 seconds
#
# Revision: 0
# Processed by: cddbd v1.5.2PL0 Copyright (c) Steve Scherf et al.
# Submitted via: jetAudio 7
#
DISCID=af0b400e
DTITLE=Big Bam Boom Band - Shaky Ground
DYEAR=1900
DGENRE=Blues
TTITLE0=Crossroads
TTITLE1=Rock And Roll, Hoochie Koo
TTITLE2=One Night Lover
TTITLE3=Summertime Blues
TTITLE4=Rock and Roll
TTITLE5=I Can't Quit You Baby
TTITLE6=Standing On Shaky Ground
TTITLE7=Slow Down
TTITLE8=Boom Boom
TTITLE9=Give A Drink To Yourself
TTITLE10=Thunderbird
TTITLE11=Don't Want You
TTITLE12=A Legal Matter
TTITLE13=Second Hand Gear
EXTD=
EXTT0=
EXTT1=
EXTT2=
EXTT3=
EXTT4=
EXTT5=
EXTT6=
EXTT7=
EXTT8=
EXTT9=
EXTT10=
EXTT11=
EXTT12=
EXTT13=
PLAYORDER=
